<?xml version="1.0" standalone="no"?>
<!DOCTYPE svg PUBLIC "-//W3C//DTD SVG 20010904//EN"
 "http://www.w3.org/TR/2001/REC-SVG-20010904/DTD/svg10.dtd">
<svg version="1.0" xmlns="http://www.w3.org/2000/svg"
 width="356.000000pt" height="450.000000pt" viewBox="0 0 356.000000 450.000000"
 preserveAspectRatio="xMidYMid meet">
<metadata>
Created by potrace 1.16, written by Peter Selinger 2001-2019
</metadata>
<g transform="translate(0.000000,450.000000) scale(0.100000,-0.100000)"
fill="#FFFFFF" stroke="none">
<path d="M1688 4253 c0 -5 -2 -12 -3 -18 -2 -5 -3 -25 -4 -42 -1 -32 -2 -33
-46 -33 l-45 0 0 -75 0 -75 45 0 45 0 0 -39 c0 -35 -5 -42 -62 -87 -212 -165
-372 -409 -434 -661 l-27 -113 -91 49 c-50 26 -141 76 -202 110 -116 63 -143
71 -164 46 -7 -8 -16 -15 -21 -15 -5 0 -57 27 -116 60 -59 33 -115 60 -124 60
-9 0 -28 -9 -43 -21 -20 -16 -26 -29 -26 -58 0 -44 10 -55 93 -101 31 -17 57
-35 57 -38 0 -3 -18 -37 -41 -74 -22 -38 -37 -73 -34 -78 4 -6 19 -17 36 -25
33 -18 35 -23 15 -50 -14 -19 -15 -19 -51 -2 -46 22 -50 19 -100 -78 -39 -75
-40 -77 -20 -90 58 -40 57 -34 15 -105 -22 -36 -40 -71 -40 -77 0 -10 48 -43
64 -43 2 0 14 16 25 36 18 29 24 34 36 24 12 -10 12 -16 -3 -47 -16 -34 -16
-35 8 -54 34 -26 46 -24 67 11 18 32 43 40 43 15 0 -9 -7 -26 -15 -39 -15 -23
-14 -25 11 -45 36 -28 50 -27 71 9 17 30 43 41 43 18 -1 -7 -7 -24 -15 -38 -8
-14 -14 -28 -15 -32 0 -8 58 -38 74 -38 6 0 24 24 40 53 46 83 53 89 87 72 15
-8 32 -15 38 -15 5 0 26 29 47 65 21 36 42 65 46 65 4 0 8 -94 8 -209 l0 -209
-113 -66 c-63 -36 -116 -66 -119 -66 -3 0 -8 23 -11 52 -26 213 -270 301 -421
152 -60 -59 -84 -169 -54 -250 10 -30 9 -34 -27 -69 -69 -70 -88 -143 -63
-243 16 -65 95 -144 160 -160 61 -15 103 -15 153 3 l40 14 40 -39 c52 -51 100
-70 175 -70 101 0 188 57 228 150 l15 35 12 -55 c99 -470 540 -748 1001 -630
222 57 419 213 519 410 35 69 72 176 81 235 7 49 18 58 28 23 9 -36 64 -97
109 -121 65 -34 176 -31 239 5 25 16 56 40 67 55 20 25 24 25 60 15 119 -36
243 14 297 119 49 98 32 205 -47 285 -33 34 -39 45 -31 60 20 40 24 103 8 156
-20 70 -64 121 -131 154 -48 23 -63 26 -120 21 -67 -6 -89 -15 -142 -55 -42
-32 -86 -121 -87 -178 -1 -41 -3 -44 -22 -40 -12 3 -67 31 -123 63 l-101 57 0
203 c0 122 4 203 10 203 5 0 25 -28 46 -62 20 -35 37 -64 39 -66 1 -2 19 7 38
18 l36 22 36 -56 c20 -31 38 -63 41 -71 8 -19 34 -19 62 1 l22 15 -20 40 c-19
37 -19 40 -3 46 9 4 18 2 21 -5 2 -6 12 -22 22 -34 18 -22 19 -22 54 -6 34 17
35 19 24 45 -7 16 -16 34 -21 40 -6 9 -3 15 9 20 10 4 19 2 22 -5 2 -6 12 -22
21 -34 17 -20 21 -20 50 -9 35 15 38 29 15 73 -13 25 -14 32 -2 39 8 6 17 3
25 -9 40 -58 37 -56 71 -38 18 9 32 20 32 25 0 5 -18 40 -40 77 -22 38 -40 71
-40 74 0 3 14 11 30 18 18 8 30 21 30 33 0 26 -81 159 -97 159 -8 0 -25 -7
-38 -16 -20 -13 -28 -14 -40 -4 -24 20 -18 48 15 65 17 9 30 20 30 25 0 6 -18
40 -40 76 -22 36 -37 70 -34 75 3 5 26 20 52 34 88 46 119 85 103 128 -11 29
-48 57 -75 57 -10 0 -70 -30 -133 -66 -106 -62 -115 -65 -132 -50 -10 9 -28
16 -40 16 -12 0 -87 -38 -167 -85 -159 -93 -218 -125 -233 -125 -5 0 -17 32
-26 71 -67 272 -222 509 -447 681 -71 53 -78 62 -78 93 l0 35 50 0 50 0 0 75
0 75 -50 0 -50 0 0 50 0 50 -70 0 c-38 0 -71 -3 -72 -7z m114 -70 l3 -48 46
-3 c47 -3 47 -3 51 -43 2 -21 1 -40 -2 -40 -5 -2 -54 -6 -82 -8 -14 -1 -18
-10 -18 -46 l0 -45 -40 0 -40 0 0 45 c0 49 3 46 -77 48 -20 1 -23 6 -23 44 l0
43 45 0 45 0 0 50 0 50 44 0 45 0 3 -47z m74 -312 c38 -27 91 -72 118 -99 l49
-51 -33 -20 c-39 -23 -99 -35 -132 -26 -13 3 -44 15 -70 27 l-46 21 -53 -27
c-29 -14 -68 -26 -87 -26 -47 0 -108 19 -127 40 -14 16 -11 22 42 70 32 30 84
73 117 97 49 36 65 43 106 43 40 0 57 -7 116 -49z m223 -210 c17 -21 31 -44
31 -50 0 -8 -106 -11 -370 -11 -244 0 -370 3 -370 10 0 6 15 27 34 47 l34 37
53 -24 c67 -32 147 -31 210 0 40 21 45 21 73 7 77 -40 163 -39 227 0 19 12 37
22 41 22 3 1 20 -17 37 -38z m91 -128 c42 -66 40 -78 -23 -101 -108 -41 -251
-37 -356 9 l-44 19 -65 -26 c-80 -32 -187 -41 -274 -24 -51 10 -109 31 -126
45 -5 5 38 88 56 108 14 16 46 17 409 17 l393 0 30 -47z m-824 -134 c107 -38
273 -31 364 16 27 14 34 13 107 -12 103 -35 228 -37 318 -4 33 12 68 24 77 27
12 5 21 -4 32 -31 30 -70 69 -65 -504 -65 l-520 0 10 25 c6 14 15 37 20 51 8
20 15 24 28 18 9 -4 40 -15 68 -25z m1762 -1 c22 -22 13 -56 -20 -81 -35 -26
-191 -117 -201 -117 -10 0 -49 70 -45 81 2 6 46 37 98 69 95 59 144 72 168 48z
m-2586 -53 c44 -25 83 -45 86 -45 3 0 13 -7 23 -16 17 -16 17 -18 -4 -55 -12
-21 -28 -39 -35 -39 -8 0 -59 25 -113 56 -108 61 -127 87 -94 124 26 29 48 25
137 -25z m2255 -33 c10 -6 302 -481 380 -619 23 -40 23 -43 7 -50 -10 -4 -19
-2 -22 5 -2 6 -11 21 -21 33 -17 21 -18 21 -49 5 -37 -19 -38 -25 -16 -68 12
-23 13 -33 4 -42 -11 -11 -18 -5 -53 47 -12 18 -13 18 -45 0 -36 -20 -39 -29
-16 -61 15 -22 13 -52 -3 -52 -4 0 -18 16 -31 35 -22 35 -23 35 -52 20 -39
-20 -42 -28 -25 -61 18 -35 19 -54 3 -54 -7 0 -36 40 -65 88 -28 48 -117 197
-198 331 -80 134 -144 248 -143 253 3 8 317 198 328 198 3 0 10 -4 17 -8z
m-1978 -46 c31 -18 100 -57 155 -87 54 -30 100 -59 103 -65 2 -7 -24 -61 -58
-120 -66 -117 -224 -389 -239 -414 -5 -8 -26 -45 -47 -82 -35 -64 -54 -80 -68
-58 -3 5 2 24 11 42 16 32 16 32 -12 55 -16 13 -32 23 -36 23 -4 0 -18 -16
-30 -35 -13 -19 -26 -35 -30 -35 -17 0 -18 22 -2 52 16 32 16 32 -12 55 -16
13 -33 23 -37 23 -4 0 -17 -16 -28 -35 -12 -19 -25 -35 -29 -35 -18 0 -20 21
-5 49 21 42 19 48 -17 67 -31 16 -32 16 -57 -15 -24 -29 -51 -41 -51 -23 0 5
37 71 82 148 108 185 167 287 241 416 72 125 77 127 166 74z m1489 7 c32 -80
28 -91 -50 -116 -123 -42 -272 -40 -424 4 l-72 21 -53 -20 c-79 -29 -202 -45
-291 -38 -90 7 -207 41 -214 61 -3 8 2 37 11 65 l17 50 533 0 533 0 10 -27z
m710 -136 c34 -56 35 -58 16 -72 -31 -23 -41 -18 -79 43 l-36 57 22 18 c12 10
26 16 32 14 5 -1 25 -28 45 -60z m-2443 41 c32 -14 31 -21 -8 -87 -38 -63 -46
-68 -75 -44 l-20 18 35 63 c19 34 36 62 38 62 2 0 16 -5 30 -12z m751 -67 c95
-20 282 -11 371 19 l71 23 79 -24 c112 -34 304 -35 412 -1 84 26 93 22 89 -38
l-3 -35 -582 -3 -583 -2 0 24 c0 14 4 36 10 51 9 24 11 25 42 12 18 -7 61 -19
94 -26z m1100 -23 c7 -10 -20 -38 -38 -38 -13 0 -9 38 5 43 20 9 25 8 33 -5z
m-1278 -25 c4 -26 -1 -28 -29 -13 -27 15 -25 42 4 38 14 -2 23 -11 25 -25z
m1331 -49 c12 -19 21 -39 21 -43 0 -9 -88 -63 -325 -200 l-139 -81 -100 0
c-58 0 -96 4 -90 9 5 5 68 42 139 84 72 41 204 118 295 171 91 53 168 96 172
96 3 0 15 -16 27 -36z m-1308 -20 c73 -41 205 -115 464 -260 l70 -39 -95 -5
c-85 -4 -100 -3 -145 19 -69 33 -435 242 -435 248 0 11 44 83 51 83 3 0 44
-21 90 -46z m239 -4 c0 -31 -18 -80 -30 -80 -10 0 -172 89 -184 101 -6 5 35 9
102 9 l112 0 0 -30z m340 -9 c0 -68 -57 -231 -82 -231 -6 0 -64 30 -130 67
-113 62 -119 68 -114 92 4 14 9 45 13 69 l6 42 153 0 154 0 0 -39z m350 14 c0
-14 7 -42 15 -62 8 -20 14 -37 13 -38 -20 -15 -248 -145 -256 -145 -23 0 -100
237 -85 263 2 4 74 7 159 7 l154 0 0 -25z m230 21 c0 -6 -156 -96 -167 -96
-13 0 -33 45 -33 75 0 25 1 25 100 25 55 0 100 -2 100 -4z m823 -109 c31 -57
32 -58 12 -73 -27 -20 -36 -15 -74 50 -33 55 -33 57 -15 71 30 23 44 14 77
-48z m-2702 27 c11 -13 9 -24 -15 -67 -16 -29 -33 -56 -37 -61 -10 -11 -59 12
-59 27 0 5 15 33 32 63 34 56 55 66 79 38z m2114 -59 c30 -53 32 -72 4 -80
-23 -8 -32 2 -70 73 -23 42 -24 44 -5 58 24 17 36 8 71 -51z m-1522 41 c17
-14 17 -16 -7 -63 -37 -73 -47 -83 -73 -72 -13 4 -23 13 -23 18 0 14 70 131
78 131 4 0 15 -7 25 -14z m756 -83 c13 -38 28 -73 33 -80 13 -16 3 -30 -33
-48 -26 -14 -32 -14 -58 0 -17 8 -32 19 -35 23 -3 5 6 31 18 59 13 28 27 64
31 82 3 17 10 31 13 31 4 0 18 -30 31 -67z m654 19 c-1 -38 -56 -110 -107
-142 -31 -18 -47 -20 -143 -18 l-108 3 145 84 c80 46 154 90 165 97 32 21 50
12 48 -24z m-1187 -60 c87 -49 160 -94 162 -100 3 -9 -27 -12 -105 -12 -105 0
-110 1 -150 30 -86 63 -135 170 -79 170 7 0 84 -40 172 -88z m1251 -7 l23 -35
35 17 c28 13 37 14 50 3 48 -40 -27 -80 -150 -80 -47 0 -85 4 -85 8 0 5 10 17
21 28 12 10 32 36 45 57 14 20 28 37 32 37 4 0 17 -16 29 -35z m-1396 -62 c16
-17 29 -34 29 -37 0 -3 -43 -6 -96 -6 -80 0 -102 4 -130 21 -29 18 -32 23 -23
40 15 29 34 33 63 13 25 -16 28 -16 46 1 11 10 22 27 26 38 6 20 8 20 31 -9
14 -16 38 -43 54 -61z m1577 -69 c38 -66 38 -70 10 -85 -19 -10 -25 -8 -42 14
-12 14 -30 42 -40 62 -19 35 -19 36 0 50 30 22 37 18 72 -41z m-1788 26 c13
-8 10 -19 -19 -75 -19 -36 -37 -65 -39 -65 -13 0 -42 23 -42 33 0 21 60 117
73 117 6 0 19 -5 27 -10z m1644 -540 c-1 -543 -1 -541 -50 -672 -108 -286
-411 -490 -730 -489 -368 1 -675 236 -764 585 -19 74 -20 112 -20 588 l0 508
783 -2 782 -3 -1 -515z m602 219 c41 -13 100 -70 119 -116 20 -47 19 -123 -1
-173 -9 -23 -15 -42 -13 -43 2 -2 16 -11 32 -20 66 -42 104 -160 77 -241 -24
-73 -97 -134 -179 -150 -20 -3 -60 0 -97 10 l-63 15 -32 -36 c-88 -99 -233
-108 -321 -19 -56 55 -71 96 -65 172 7 87 41 136 126 178 71 35 73 31 -44 94
-111 59 -115 64 -115 122 0 35 4 48 14 48 13 0 43 -16 213 -111 l52 -30 -6 74
c-7 88 12 134 78 191 61 52 132 63 225 35z m-2552 -56 c22 -16 50 -48 63 -73
21 -38 24 -56 21 -117 -2 -40 -2 -73 -1 -73 2 0 54 29 116 64 177 100 157 96
157 27 l0 -59 -100 -57 c-55 -32 -103 -61 -106 -66 -3 -5 3 -12 13 -15 55 -18
75 -29 107 -61 114 -115 71 -304 -82 -359 -85 -30 -166 -10 -234 58 l-48 47
-35 -15 c-45 -18 -136 -18 -183 1 -80 34 -126 106 -125 200 0 79 28 133 95
179 l22 16 -18 50 c-35 96 0 201 85 257 73 48 181 47 253 -4z m2080 -295 c43
-25 53 -35 44 -45 -6 -7 -16 -13 -23 -13 -16 0 -82 -72 -97 -106 -19 -41 -28
-8 -28 105 l0 103 24 -6 c13 -3 49 -20 80 -38z m-1724 -90 l0 -123 -35 52
c-19 29 -53 63 -75 75 -22 13 -40 26 -40 30 0 5 137 87 148 88 1 0 2 -55 2
-122z"/>
<path d="M2753 2998 c-37 -23 -39 -28 -18 -68 15 -28 14 -29 -15 -47 -36 -21
-36 -22 -10 -73 22 -43 38 -48 75 -24 26 17 27 16 90 -93 11 -18 25 -33 32
-33 14 0 83 39 83 47 0 3 -18 38 -40 79 l-41 73 31 17 c36 22 37 31 9 78 -24
41 -28 42 -70 21 -29 -15 -30 -15 -47 15 -20 35 -34 36 -79 8z m70 -39 c24
-31 24 -31 56 -14 31 16 34 15 47 -2 19 -25 17 -41 -5 -48 -49 -15 -47 -31 22
-144 20 -33 20 -34 2 -47 -10 -8 -24 -14 -29 -14 -6 0 -29 32 -50 70 -22 39
-45 70 -50 70 -6 0 -20 -7 -30 -15 -27 -20 -39 -19 -55 7 -12 20 -11 24 19 48
l32 26 -16 33 c-14 25 -15 36 -5 47 18 22 35 17 62 -17z"/>
<path d="M703 2979 c-18 -31 -23 -32 -79 -14 -17 5 -25 -1 -43 -30 -27 -47
-27 -59 4 -73 33 -15 32 -30 -10 -101 -19 -32 -35 -63 -35 -68 0 -14 79 -55
95 -49 8 3 25 27 39 53 42 82 46 85 80 68 38 -20 46 -16 74 34 l23 41 -30 18
c-34 19 -39 38 -16 68 8 10 15 22 15 26 0 7 -81 58 -93 58 -3 0 -14 -14 -24
-31z m77 -36 c0 -8 -7 -25 -16 -39 -16 -23 -16 -26 2 -39 10 -8 25 -15 32 -15
16 0 15 -31 -1 -54 -13 -18 -15 -18 -40 -1 -15 9 -33 15 -41 12 -7 -3 -30 -35
-50 -71 -38 -68 -48 -75 -79 -51 -18 13 -17 17 22 83 23 39 41 74 41 79 0 4
-14 16 -30 25 -34 19 -35 25 -14 53 14 19 15 19 49 1 39 -22 37 -23 59 21 15
30 18 31 41 21 14 -6 25 -17 25 -25z"/>
<path d="M1957 2459 l-157 -91 0 -185 0 -185 23 14 c12 8 84 49 160 92 l137
77 0 185 c0 101 -1 184 -3 184 -1 0 -73 -41 -160 -91z"/>
<path d="M1424 2527 c-2 -7 -3 -89 -2 -181 l3 -169 150 -83 c83 -46 156 -83
163 -84 10 0 12 39 10 177 l-3 178 -80 45 c-178 102 -236 130 -241 117z"/>
<path d="M2375 2279 c-16 -11 -153 -90 -302 -176 l-273 -157 0 -353 c0 -194 4
-353 8 -353 8 0 186 101 407 230 50 29 105 61 123 71 18 11 44 27 58 35 l24
16 0 349 c0 191 -3 350 -7 352 -5 2 -21 -4 -38 -14z"/>
<path d="M1120 1932 c0 -320 1 -348 18 -358 38 -24 576 -326 588 -331 12 -4
14 51 12 352 l-3 357 -130 72 c-71 40 -157 87 -190 105 -33 19 -108 60 -166
92 -58 33 -111 59 -117 59 -9 0 -12 -91 -12 -348z"/>
<path d="M3042 2280 c-44 -10 -80 -45 -93 -90 -17 -56 14 -119 70 -144 35 -16
47 -17 80 -8 117 36 134 180 26 232 -23 11 -43 20 -46 19 -2 -1 -19 -5 -37 -9z
m78 -35 c36 -19 50 -43 50 -89 0 -52 -34 -87 -92 -93 -42 -5 -50 -3 -78 25
-48 49 -40 125 18 156 35 20 66 20 102 1z"/>
<path d="M3100 1942 c-37 -20 -70 -72 -70 -110 0 -32 25 -76 56 -101 19 -15
41 -21 76 -21 43 0 55 5 82 33 42 41 53 94 30 143 -31 66 -109 91 -174 56z
m131 -41 c57 -58 27 -151 -54 -166 -46 -9 -90 14 -111 59 -21 44 -13 78 26
111 43 36 100 34 139 -4z"/>
<path d="M2771 1852 c-37 -20 -71 -73 -71 -110 0 -66 60 -122 131 -122 40 0
53 5 82 33 43 40 55 89 34 140 -28 66 -112 95 -176 59z m130 -41 c55 -55 30
-148 -45 -167 -100 -25 -169 94 -97 167 23 23 38 29 71 29 33 0 48 -6 71 -29z"/>
<path d="M404 2231 c-43 -26 -69 -92 -54 -137 13 -40 58 -80 100 -89 94 -21
180 88 136 173 -36 70 -116 93 -182 53z m134 -26 c37 -31 47 -76 26 -120 -29
-62 -115 -75 -165 -26 -89 90 42 228 139 146z"/>
<path d="M343 1919 c-71 -21 -104 -109 -68 -179 41 -80 172 -79 219 0 35 61 6
148 -59 176 -39 16 -47 16 -92 3z m128 -63 c25 -40 19 -91 -16 -125 -20 -20
-36 -26 -70 -26 -57 0 -94 34 -101 91 -13 102 132 148 187 60z"/>
<path d="M691 1839 c-18 -4 -48 -21 -65 -38 -26 -26 -31 -39 -31 -79 0 -59 24
-98 72 -119 96 -40 205 55 173 151 -21 64 -83 99 -149 85z m79 -34 c37 -19 50
-43 50 -90 0 -84 -102 -126 -169 -69 -27 22 -31 33 -31 73 0 37 5 52 23 68 39
36 81 42 127 18z"/>
<path d="M1710 789 c-63 -18 -113 -61 -145 -124 -27 -53 -30 -67 -30 -154 1
-79 5 -104 24 -143 29 -59 88 -113 138 -127 134 -37 259 18 302 135 12 30 21
57 21 59 0 3 -16 5 -35 5 -31 0 -36 -4 -55 -46 -36 -83 -104 -118 -187 -96
-62 17 -89 39 -113 96 -18 41 -21 64 -18 136 3 74 7 92 30 128 37 55 79 76
150 76 69 -1 122 -32 140 -81 10 -29 17 -33 46 -33 33 0 34 1 28 32 -9 45 -50
95 -99 119 -47 25 -144 33 -197 18z"/>
<path d="M498 784 c-5 -4 -8 -128 -8 -276 l0 -269 38 3 37 3 3 113 3 112 107
0 c123 0 162 14 199 69 30 45 32 132 3 178 -34 57 -68 67 -230 71 -80 2 -148
0 -152 -4z m307 -85 c21 -21 29 -78 16 -112 -16 -40 -64 -57 -166 -57 l-85 0
0 94 c0 110 -9 104 132 96 61 -3 92 -10 103 -21z"/>
<path d="M1002 578 c3 -204 4 -215 27 -256 33 -56 103 -92 181 -92 99 0 166
35 203 105 20 36 22 59 25 248 l4 208 -38 -3 -39 -3 -1 -195 c0 -163 -3 -200
-17 -227 -48 -90 -188 -96 -251 -10 -19 26 -21 45 -24 233 l-3 204 -35 0 -35
0 3 -212z"/>
<path d="M2110 510 l0 -270 35 0 34 0 3 113 3 112 121 5 c133 6 161 16 191 73
23 44 23 135 0 171 -38 58 -67 66 -234 66 l-153 0 0 -270z m311 181 c19 -23
25 -83 13 -116 -12 -32 -59 -45 -159 -45 l-95 0 0 96 0 96 111 -4 c102 -3 112
-5 130 -27z"/>
<path d="M2620 510 l0 -270 40 0 40 0 0 115 0 115 99 0 c156 0 181 -17 181
-128 0 -93 5 -102 57 -102 44 0 44 0 29 22 -11 15 -16 45 -16 90 0 76 -12 115
-41 136 -19 13 -19 14 10 48 69 78 42 198 -52 233 -16 6 -99 11 -188 11 l-159
0 0 -270z m335 185 c36 -35 35 -102 -1 -136 -23 -22 -35 -24 -140 -27 l-114
-4 0 96 0 96 115 0 c110 0 117 -1 140 -25z"/>
</g>
</svg>
